<svg width="30" height="30" viewBox="0 0 30 30" fill="none" xmlns="http://www.w3.org/2000/svg">
<rect width="30" height="30" rx="4" fill="url(#paint0_linear_24_31)"/>
<path fill-rule="evenodd" clip-rule="evenodd" d="M7.65 20.24C7.71986 20.1655 7.81045 20.105 7.91459 20.0633C8.01873 20.0217 8.13357 20 8.25 20H12C12.1989 20 12.3897 20.0632 12.5303 20.1757C12.671 20.2883 12.75 20.4409 12.75 20.6C12.75 20.7591 12.671 20.9117 12.5303 21.0243C12.3897 21.1368 12.1989 21.2 12 21.2H8.625L5.25 24.8H24.75L21.375 21.2H18C17.8011 21.2 17.6103 21.1368 17.4697 21.0243C17.329 20.9117 17.25 20.7591 17.25 20.6C17.25 20.4409 17.329 20.2883 17.4697 20.1757C17.6103 20.0632 17.8011 20 18 20H21.75C21.8664 20 21.9813 20.0217 22.0854 20.0633C22.1896 20.105 22.2801 20.1655 22.35 20.24L26.85 25.04C26.9336 25.1291 26.9845 25.2351 26.997 25.3461C27.0095 25.4571 26.9831 25.5687 26.9208 25.6683C26.8585 25.768 26.7628 25.8518 26.6443 25.9104C26.5258 25.969 26.3893 26 26.25 26H3.75C3.61072 26 3.47418 25.969 3.3557 25.9104C3.23722 25.8518 3.14147 25.768 3.07918 25.6683C3.01689 25.5687 2.99052 25.4571 3.00303 25.3461C3.01554 25.2351 3.06643 25.1291 3.15 25.04L7.65 20.24Z" fill="white"/>
<path d="M15 24C15 24 24 16.1818 24 10.25C24 8.06196 23.0518 5.96354 21.364 4.41637C19.6761 2.86919 17.3869 2 15 2C12.6131 2 10.3239 2.86919 8.63604 4.41637C6.94821 5.96354 6 8.06196 6 10.25C6 16.1818 15 24 15 24ZM15 14.375C13.8065 14.375 12.6619 13.9404 11.818 13.1668C10.9741 12.3932 10.5 11.344 10.5 10.25C10.5 9.15598 10.9741 8.10677 11.818 7.33318C12.6619 6.5596 13.8065 6.125 15 6.125C16.1935 6.125 17.3381 6.5596 18.182 7.33318C19.0259 8.10677 19.5 9.15598 19.5 10.25C19.5 11.344 19.0259 12.3932 18.182 13.1668C17.3381 13.9404 16.1935 14.375 15 14.375Z" fill="white"/>
<defs>
<linearGradient id="paint0_linear_24_31" x1="0" y1="0" x2="22" y2="20" gradientUnits="userSpaceOnUse">
<stop stop-color="#A85ED4"/>
<stop offset="1" stop-color="#D8987C"/>
</linearGradient>
</defs>
</svg>
